<?xml version="1.0" encoding="UTF-8"?>
<svg xmlns="http://www.w3.org/2000/svg" xmlns:xlink="http://www.w3.org/1999/xlink" viewBox="0 0 473.48 87.2">
  <defs>
    <style>
      .cls-1 {
        isolation: isolate;
      }

      .cls-2 {
        fill: url(#Degradado_sin_nombre_70-2);
      }

      .cls-3 {
        fill: url(#Degradado_sin_nombre_63-2);
      }

      .cls-4 {
        fill: #0e2047;
        font-family: Montserrat-ExtraBold, Montserrat;
        font-size: 78px;
        font-weight: 700;
      }

      .cls-5 {
        fill: url(#Degradado_sin_nombre_4);
      }

      .cls-6 {
        fill: url(#Degradado_sin_nombre_70);
      }

      .cls-7 {
        fill: url(#Degradado_sin_nombre_63);
      }

      .cls-8 {
        fill: url(#Degradado_sin_nombre_11);
      }

      .cls-9 {
        fill: url(#Degradado_sin_nombre_13);
      }

      .cls-10 {
        fill: url(#Degradado_sin_nombre_12);
        mix-blend-mode: overlay;
      }

      .cls-11 {
        letter-spacing: .07em;
      }

      .cls-12 {
        letter-spacing: .06em;
      }

      .cls-13 {
        letter-spacing: .04em;
      }
    </style>
    <linearGradient id="Degradado_sin_nombre_70" data-name="Degradado sin nombre 70" x1="276.03" y1="36.99" x2="303.22" y2="36.99" gradientUnits="userSpaceOnUse">
      <stop offset=".03" stop-color="#ee7114"/>
      <stop offset=".46" stop-color="#f79b09"/>
      <stop offset=".8" stop-color="#fcb602"/>
      <stop offset="1" stop-color="#ffc000"/>
    </linearGradient>
    <linearGradient id="Degradado_sin_nombre_12" data-name="Degradado sin nombre 12" x1="276.03" y1="40.7" x2="295.46" y2="40.7" gradientUnits="userSpaceOnUse">
      <stop offset="0" stop-color="#fff" stop-opacity=".3"/>
      <stop offset="1" stop-color="#000" stop-opacity=".7"/>
    </linearGradient>
    <linearGradient id="Degradado_sin_nombre_70-2" data-name="Degradado sin nombre 70" x1="241.37" y1="31.02" x2="267.9" y2="31.02" xlink:href="#Degradado_sin_nombre_70"/>
    <linearGradient id="Degradado_sin_nombre_4" data-name="Degradado sin nombre 4" x1="258.61" y1="16.16" x2="258.61" y2="55.87" gradientUnits="userSpaceOnUse">
      <stop offset="0" stop-color="#001e27" stop-opacity=".2"/>
      <stop offset=".15" stop-color="#17203a" stop-opacity=".18"/>
      <stop offset="1" stop-color="#7b298f" stop-opacity=".1"/>
    </linearGradient>
    <linearGradient id="Degradado_sin_nombre_63" data-name="Degradado sin nombre 63" x1="252.48" y1="37.7" x2="285.52" y2="37.7" gradientUnits="userSpaceOnUse">
      <stop offset="0" stop-color="#7b298f"/>
      <stop offset=".14" stop-color="#842b87"/>
      <stop offset=".38" stop-color="#9f3271"/>
      <stop offset=".69" stop-color="#cb3e4f"/>
      <stop offset="1" stop-color="#ff4c27"/>
    </linearGradient>
    <linearGradient id="Degradado_sin_nombre_11" data-name="Degradado sin nombre 11" x1="265.39" y1="51.26" x2="276.52" y2="51.26" gradientUnits="userSpaceOnUse">
      <stop offset="0" stop-color="#7b298f" stop-opacity=".1"/>
      <stop offset=".85" stop-color="#17203a" stop-opacity=".26"/>
      <stop offset="1" stop-color="#001e27" stop-opacity=".3"/>
    </linearGradient>
    <linearGradient id="Degradado_sin_nombre_63-2" data-name="Degradado sin nombre 63" x1="221.34" y1="38.44" x2="247.13" y2="38.44" xlink:href="#Degradado_sin_nombre_63"/>
    <linearGradient id="Degradado_sin_nombre_13" data-name="Degradado sin nombre 13" x1="222.47" y1="28.89" x2="240.98" y2="28.89" gradientUnits="userSpaceOnUse">
      <stop offset="0" stop-color="#001e27" stop-opacity=".3"/>
      <stop offset=".15" stop-color="#17203a" stop-opacity=".26"/>
      <stop offset="1" stop-color="#7b298f" stop-opacity=".1"/>
    </linearGradient>
  </defs>
  <g class="cls-1">
    <g id="Layer_2" data-name="Layer 2">
      <g id="Layer_1-2" data-name="Layer 1">
        <g>
          <text class="cls-4" transform="translate(4.69 66.3)"><tspan class="cls-12" x="0" y="0">V</tspan><tspan class="cls-11" x="64.04" y="0">I</tspan><tspan class="cls-13" x="95.94" y="0">T</tspan><tspan class="cls-11" x="148.2" y="0" xml:space="preserve">A   IND</tspan></text>
          <g>
            <path class="cls-6" d="M298.76,63.84c-3.56,1.73-8.35,1.72-11.56-.75-.46-.35-.88-.75-1.26-1.21-1.87-2.2-2.1-5.32-2.3-8.08-.2-2.79-.6-5.5-1.03-8.28-.94-6.04-2.01-11.93-3.93-17.75-.23-.71-.47-1.43-.73-2.15-.31-.88-.67-1.74-1.1-2.55-.93-1.72-1.02-2.16-.5-4.16.05-.2.1-.4.16-.6,1.27-4.77,1.54-6.52,2.96-7.37.87-.52,1.08-.02,3.11-.66,1.3-.41,2.29-.95,2.94-1.36h0s.67.61.68.61c1.77,1.62,3.09,3.57,4.27,5.63,2.66,4.6,4.59,9.51,6.39,14.51,2.27,6.31,4.23,13.1,5.26,19.74,1.38,5.29,2.49,11.58-3.36,14.42Z"/>
            <path class="cls-10" d="M295.46,43.82c0,7.58-3.17,14.43-8.26,19.27-.46-.35-.88-.75-1.26-1.21-1.87-2.2-2.1-5.32-2.3-8.08-.2-2.79-.6-5.5-1.03-8.28-.94-6.04-2.01-11.93-3.93-17.75-.52-1.57-1.04-3.24-1.83-4.7-.93-1.72-1.02-2.16-.5-4.16.05-.2.1-.4.16-.6,10.97,3.29,18.95,13.46,18.95,25.5Z"/>
            <path class="cls-2" d="M266.28,23.06c-.69.45-1.54.96-2.46,1.6-1.91,1.32-4.12,3.2-5.77,6.2-1.07,1.95-1.72,4.04-2.64,7.01-1.59,5.13-2.47,10.11-2.73,15.48,0-.05-.02-.11-.03-.16-.19-.91-.4-1.8-.64-2.69-.65-2.42-1.48-4.78-2.44-7.09-.61-1.45-1.27-2.88-1.97-4.29-.53-1.06-1.09-2.11-1.67-3.15-1.49-2.67-3.96-5.12-4.4-8.05-.46-3.11.28-3.96.36-9.32.11-6.5-1.14-9.34-.08-9.87,1.45-.72,3.61,4.6,9.36,8.04,3.36,2,6.79,2.68,9.68,2.98.49.05.98.09,1.49.13.16,0,.32.02.47.03.61.04,1.18.07,1.71.1.27.02.52.03.76.05.54.04,1.01.1,1.39.19.34.08.61.18.82.32.21.14.35.32.4.55.14.66-.52,1.22-1.6,1.93Z"/>
            <path class="cls-5" d="M269.63,16.16c-1.03,1.35-2.02,2.72-2.96,4.1-.99,1.45-1.94,2.91-2.85,4.4-1.12,1.83-2.18,3.7-3.2,5.64-1.84,3.49-3.13,5.95-3.99,8.55-1.96,5.95-.87,10.28-.47,13.01-.47,1.23-.88,2.3-1.21,3.21-.11.29-.2.56-.3.81-.61-.6-1.26-1.2-1.96-1.8,0-.02,0-.03,0-.05-.02-.28-.04-.55-.05-.82-.19-.91-.4-1.8-.64-2.69-.65-2.42-1.48-4.78-2.44-7.09-.61-1.45-1.27-2.88-1.97-4.29,1.4-2.41,3.02-4.95,4.87-7.57,2.91-4.12,9.74-11.26,10.36-11.65.61.04,1.18.07,1.71.1.27.02.52.03.76.05,1.18-1.21,2.62-2.56,4.36-3.91Z"/>
            <path class="cls-7" d="M285.52,8.93c-3.14,4.99-5.2,9-5.92,10.99-.29.79-.55,1.59-.55,1.59-.45,1.4-.8,2.76-1.1,4.11-.75,3.47-1.07,6.86-1.43,10.61-.11,1.14-.49,4.92-.55,9.98-.06,4.47,1.15,10.71-1.16,14.74-1.71,2.97-5.03,4.81-8.41,5.35-.62.1-1.25.15-1.86.16-4.1.06-8.99-2.06-10.83-5.94-.95-2.01-.86-4.29-1.02-6.45,0-.02,0-.03,0-.05-.02-.28-.04-.55-.05-.82-.17-2.86-.19-5.47-.11-6.86.3-4.96,2.85-14.51,9.81-22.95.67-.81,1.64-1.98,2.94-3.31,1.18-1.21,2.62-2.56,4.36-3.91,2.68-2.08,6.03-4.13,10.11-5.63,2.31-.85,4.32-1.32,5.77-1.6Z"/>
            <path class="cls-8" d="M274.81,60.95c-1.71,2.97-5.03,4.81-8.41,5.35-.66-2.49-1.02-5.16-1.02-7.95,0-10,4.6-18.57,11.14-22.12-.34,3.3-.51,6.61-.55,9.98-.06,4.47,1.15,10.71-1.16,14.74Z"/>
            <path class="cls-3" d="M244.03,45.66c1.85,10.01,4.62,13.54,2.08,17.38-3.88,5.86-16.63,7.22-22.01,1.57-3.58-3.77-3.16-9.59-1.63-17.94.87-4.75,2.39-10.66,5.16-17.1,2.66-6.17,7.15-14.43,10.79-18.46,1.78-1.98,3.01-2.68,4.01-2.36,3.75,1.17-2.17,16.52,1.6,36.91Z"/>
            <path class="cls-9" d="M240.98,22.24c0,11.63-7.84,21.44-18.52,24.43.87-4.75,2.39-10.66,5.16-17.1,2.66-6.17,7.15-14.43,10.79-18.46,1.65,3.36,2.57,7.14,2.57,11.14Z"/>
          </g>
        </g>
      </g>
    </g>
  </g>
</svg>